<svg version="1.1" viewBox="0 0 256 256" xmlns="http://www.w3.org/2000/svg">
	<path d="m16.12 16.12v225.76h225.76v-225.76zm100.12 29.04c5.38.06 8.9 1.22 14.5 2.88l4.88 1.42 1.62.6 6.3 1.82a25.6 25.6 0 0012.6.2a23.16 23.16 0 0116.86 2.04a16.66 16.66 0 018.34 12.6a14.84 14.84 0 007.32 11.18a120.9 120.9 0 0018.9 8.32c4.68 1.82 9.14 3.66 13.82 5.48a13.82 13.82 0 015.9 4.26a9.76 9.76 0 012.24 5.48c.2 4.06.82 8.12 1.02 12.2a30.88 30.88 0 01-3.66 16.26l-3.04 5.48a6.9 6.9 0 01-.32.62a43 43 0 00-29.62-11.84a43 43 0 00-37.72 22.36a23.78 23.78 0 00-4.88 4.52a30.08 30.08 0 00-4.26 8.74c-1.46 3.78-2.84 18.58-3.72 31.94l-16.24 16.24c-13.56-5.34-34.18-16.02-54.06-36.38l8.74-22.96h-27.42l19.92-20.92h-34.14l19.92-20.94h-32.54l35.96-38.4a83.12 83.12 0 0140.24-21.96c5.42-.92 9.3-1.28 12.54-1.26zm78.06 91.34c4.48.12 8.9 1.2 12.96 3.18c8.72 4.4 14.86 12.64 16.58 22.24c.76 4.72.46 9.54-.86 14.14c-1.36 4.6-3.8 8.82-7.12 12.28c-3.42 3.52-7.64 6.18-12.28 7.74c-4.48 1.62-9.28 2.18-14 1.6c-4.8-.52-9.4-2.22-13.4-4.92l-28.88 29-8.72-8.72 29-28.88c-9.64-14.62-5.18-34.32 9.82-43.38h.36c4.44-2.62 9.48-4.08 14.62-4.28c.64-.02 1.28-.02 1.92-.02zm-1.7 12.3c-.9.04-1.78.16-2.68.34c-7.34 1.42-13.08 7.16-14.5 14.5c-.72 3.54-.38 7.22.98 10.56c1.44 3.4 3.82 6.3 6.88 8.36c3.54 2.36 7.8 3.42 12.02 3h.02c13.84-1.38 21.22-16.98 13.52-28.56c-2.06-3.06-4.96-5.44-8.36-6.88c-2.52-1.02-5.22-1.48-7.9-1.32z" fill="#2196f3"/>
</svg>
